<mxfile host="app.diagrams.net" modified="2024-01-13T12:43:41.359Z" agent="Mozilla/5.0 (X11; Linux x86_64; rv:121.0) Gecko/20100101 Firefox/121.0" etag="uSlbeZ73TS5jwNCi89jq" version="22.1.18" type="github">
  <diagram name="Page-1" id="4Q0Q6ciVgmbCOtN7iEoL">
    <mxGraphModel dx="399" dy="594" grid="1" gridSize="10" guides="1" tooltips="1" connect="1" arrows="1" fold="1" page="1" pageScale="1" pageWidth="850" pageHeight="1100" math="0" shadow="0">
      <root>
        <mxCell id="0" />
        <mxCell id="1" parent="0" />
        <mxCell id="ad9P6Hg6cNtig0yl15J3-7" value="" style="rounded=1;whiteSpace=wrap;html=1;fillColor=none;arcSize=6;dashed=1;" parent="1" vertex="1">
          <mxGeometry x="245" y="210" width="510" height="270" as="geometry" />
        </mxCell>
        <mxCell id="ad9P6Hg6cNtig0yl15J3-10" style="edgeStyle=orthogonalEdgeStyle;rounded=0;orthogonalLoop=1;jettySize=auto;html=1;exitX=0.5;exitY=1;exitDx=0;exitDy=0;entryX=1;entryY=0.5;entryDx=0;entryDy=0;" parent="1" source="ad9P6Hg6cNtig0yl15J3-5" target="ad9P6Hg6cNtig0yl15J3-9" edge="1">
          <mxGeometry relative="1" as="geometry" />
        </mxCell>
        <mxCell id="ad9P6Hg6cNtig0yl15J3-30" style="edgeStyle=orthogonalEdgeStyle;rounded=0;orthogonalLoop=1;jettySize=auto;html=1;exitX=0.25;exitY=1;exitDx=0;exitDy=0;entryX=0.5;entryY=1;entryDx=0;entryDy=0;" parent="1" source="ad9P6Hg6cNtig0yl15J3-5" target="ad9P6Hg6cNtig0yl15J3-14" edge="1">
          <mxGeometry relative="1" as="geometry" />
        </mxCell>
        <mxCell id="ad9P6Hg6cNtig0yl15J3-5" value="Motor System" style="rounded=0;whiteSpace=wrap;html=1;" parent="1" vertex="1">
          <mxGeometry x="600" y="370" width="120" height="60" as="geometry" />
        </mxCell>
        <mxCell id="ad9P6Hg6cNtig0yl15J3-12" style="edgeStyle=orthogonalEdgeStyle;rounded=0;orthogonalLoop=1;jettySize=auto;html=1;exitX=0;exitY=0.5;exitDx=0;exitDy=0;entryX=0.5;entryY=1;entryDx=0;entryDy=0;" parent="1" source="ad9P6Hg6cNtig0yl15J3-9" target="ad9P6Hg6cNtig0yl15J3-11" edge="1">
          <mxGeometry relative="1" as="geometry" />
        </mxCell>
        <mxCell id="ad9P6Hg6cNtig0yl15J3-9" value="External environment" style="ellipse;whiteSpace=wrap;html=1;aspect=fixed;" parent="1" vertex="1">
          <mxGeometry x="460" y="510" width="80" height="80" as="geometry" />
        </mxCell>
        <mxCell id="ad9P6Hg6cNtig0yl15J3-29" style="edgeStyle=orthogonalEdgeStyle;rounded=0;orthogonalLoop=1;jettySize=auto;html=1;exitX=1;exitY=0.5;exitDx=0;exitDy=0;entryX=0;entryY=0.5;entryDx=0;entryDy=0;" parent="1" source="ad9P6Hg6cNtig0yl15J3-11" target="ad9P6Hg6cNtig0yl15J3-24" edge="1">
          <mxGeometry relative="1" as="geometry" />
        </mxCell>
        <mxCell id="ad9P6Hg6cNtig0yl15J3-11" value="Sensor System" style="rounded=0;whiteSpace=wrap;html=1;" parent="1" vertex="1">
          <mxGeometry x="270" y="370" width="120" height="60" as="geometry" />
        </mxCell>
        <mxCell id="ad9P6Hg6cNtig0yl15J3-16" style="edgeStyle=orthogonalEdgeStyle;rounded=0;orthogonalLoop=1;jettySize=auto;html=1;exitX=1;exitY=0.5;exitDx=0;exitDy=0;entryX=0;entryY=0.5;entryDx=0;entryDy=0;" parent="1" source="ad9P6Hg6cNtig0yl15J3-14" target="ad9P6Hg6cNtig0yl15J3-5" edge="1">
          <mxGeometry relative="1" as="geometry" />
        </mxCell>
        <mxCell id="ad9P6Hg6cNtig0yl15J3-19" style="edgeStyle=orthogonalEdgeStyle;rounded=0;orthogonalLoop=1;jettySize=auto;html=1;exitX=0.25;exitY=0;exitDx=0;exitDy=0;entryX=0.25;entryY=1;entryDx=0;entryDy=0;" parent="1" source="ad9P6Hg6cNtig0yl15J3-14" edge="1">
          <mxGeometry relative="1" as="geometry">
            <mxPoint x="470" y="320" as="targetPoint" />
          </mxGeometry>
        </mxCell>
        <mxCell id="ad9P6Hg6cNtig0yl15J3-14" value="Actuator System" style="rounded=0;whiteSpace=wrap;html=1;" parent="1" vertex="1">
          <mxGeometry x="440" y="370" width="120" height="60" as="geometry" />
        </mxCell>
        <mxCell id="ad9P6Hg6cNtig0yl15J3-18" style="edgeStyle=orthogonalEdgeStyle;rounded=0;orthogonalLoop=1;jettySize=auto;html=1;exitX=0.75;exitY=1;exitDx=0;exitDy=0;entryX=0.75;entryY=0;entryDx=0;entryDy=0;" parent="1" target="ad9P6Hg6cNtig0yl15J3-14" edge="1">
          <mxGeometry relative="1" as="geometry">
            <mxPoint x="530" y="320" as="sourcePoint" />
          </mxGeometry>
        </mxCell>
        <mxCell id="ad9P6Hg6cNtig0yl15J3-26" style="edgeStyle=orthogonalEdgeStyle;rounded=0;orthogonalLoop=1;jettySize=auto;html=1;exitX=1;exitY=0.5;exitDx=0;exitDy=0;entryX=0.5;entryY=0;entryDx=0;entryDy=0;" parent="1" source="ad9P6Hg6cNtig0yl15J3-20" target="ad9P6Hg6cNtig0yl15J3-23" edge="1">
          <mxGeometry relative="1" as="geometry" />
        </mxCell>
        <mxCell id="ad9P6Hg6cNtig0yl15J3-20" value="Operator" style="rounded=0;whiteSpace=wrap;html=1;" parent="1" vertex="1">
          <mxGeometry x="270" y="130" width="120" height="60" as="geometry" />
        </mxCell>
        <mxCell id="ad9P6Hg6cNtig0yl15J3-22" value="Robot" style="text;html=1;strokeColor=none;fillColor=none;align=center;verticalAlign=middle;whiteSpace=wrap;rounded=0;" parent="1" vertex="1">
          <mxGeometry x="260" y="220" width="60" height="30" as="geometry" />
        </mxCell>
        <mxCell id="ad9P6Hg6cNtig0yl15J3-31" style="edgeStyle=orthogonalEdgeStyle;rounded=0;orthogonalLoop=1;jettySize=auto;html=1;exitX=0;exitY=0.5;exitDx=0;exitDy=0;" parent="1" source="ad9P6Hg6cNtig0yl15J3-23" target="ad9P6Hg6cNtig0yl15J3-24" edge="1">
          <mxGeometry relative="1" as="geometry" />
        </mxCell>
        <mxCell id="ad9P6Hg6cNtig0yl15J3-23" value="Interface" style="rounded=0;whiteSpace=wrap;html=1;" parent="1" vertex="1">
          <mxGeometry x="610" y="260" width="120" height="60" as="geometry" />
        </mxCell>
        <mxCell id="ad9P6Hg6cNtig0yl15J3-24" value="Control System" style="rounded=0;whiteSpace=wrap;html=1;" parent="1" vertex="1">
          <mxGeometry x="440" y="260" width="120" height="60" as="geometry" />
        </mxCell>
      </root>
    </mxGraphModel>
  </diagram>
</mxfile>
